<svg width="180" height="74" viewBox="0 0 180 74" fill="none" xmlns="http://www.w3.org/2000/svg">
<g clip-path="url(#clip0_299_1035)">
<path d="M32.3874 11.424V33.5538H27.2109V19.2758C27.0391 19.3372 26.8673 19.3973 26.6948 19.4568C26.0105 19.6929 25.32 19.917 24.6233 20.1293C23.7692 20.3898 22.9062 20.6322 22.035 20.8564C21.1803 21.0762 20.3173 21.2785 19.4467 21.462C18.8658 21.5853 18.2815 21.6999 17.6945 21.8064C17.4165 21.8571 17.1378 21.906 16.8584 21.9523C16.0023 22.0957 15.1393 22.2216 14.2701 22.3293C13.4133 22.4364 12.5503 22.5259 11.6818 22.5967C10.8244 22.6681 9.96137 22.7213 9.09354 22.757C8.23538 22.7933 7.37308 22.8115 6.50526 22.8121H6.41157C6.41157 23.2607 6.41779 23.7086 6.43023 24.1547C6.43921 24.4656 6.45096 24.7753 6.46615 25.0849C6.48826 25.5592 6.51797 26.0315 6.55528 26.5019C6.61607 27.2896 6.69691 28.0722 6.79709 28.8492C6.89726 29.6375 7.01817 30.4201 7.15773 31.1965C7.30005 31.9848 7.46172 32.7674 7.64273 33.5432C7.82581 34.3327 8.02962 35.1147 8.25347 35.8904C8.48008 36.6806 8.72742 37.4626 8.99479 38.2377C9.01552 38.2984 9.03624 38.3597 9.05835 38.4204V38.2377H32.3874V71.9425C31.8673 71.6435 31.352 71.3371 30.8422 71.025C30.4917 70.8115 30.1441 70.5943 29.7991 70.3752C28.9382 69.8284 28.0925 69.2641 27.2612 68.683C27.244 68.6718 27.2274 68.6606 27.2109 68.6481C26.3313 68.0332 25.4683 67.3997 24.6233 66.7474C24.448 66.6132 24.2742 66.4778 24.101 66.3411C23.4002 65.7906 22.711 65.2269 22.035 64.6502C21.7818 64.4355 21.5307 64.2189 21.2817 63.9991C20.6587 63.4536 20.0468 62.8962 19.4467 62.3294C19.2108 62.1066 18.9769 61.8825 18.7451 61.6572C18.1022 61.0318 17.473 60.3951 16.8584 59.7466C16.7225 59.6036 16.5873 59.4594 16.4535 59.3152C15.7402 58.55 15.0469 57.7691 14.3743 56.9733C14.3398 56.9321 14.3046 56.8909 14.2701 56.8491C13.6582 56.1225 13.0643 55.3829 12.4876 54.6314C12.2144 54.2768 11.946 53.9192 11.6818 53.559C11.3728 53.1396 11.0699 52.7164 10.7733 52.2894C10.2359 51.5198 9.71716 50.7389 9.21703 49.9475C9.17564 49.8825 9.13424 49.817 9.09354 49.7521C8.64998 49.0449 8.22158 48.3296 7.80768 47.6055H13.4285C13.7017 48.0568 13.9825 48.5043 14.2701 48.9475C14.4881 49.2833 14.7102 49.6166 14.9365 49.9475C15.4787 50.7427 16.0451 51.5242 16.6342 52.2894C16.7087 52.3862 16.7832 52.4823 16.8584 52.5784C17.402 53.2756 17.9642 53.9604 18.5458 54.6314C18.8403 54.9734 19.1411 55.3123 19.4467 55.6469C19.8544 56.0957 20.271 56.5376 20.696 56.9733C21.1333 57.4227 21.5797 57.8653 22.035 58.3003C22.393 58.6436 22.7565 58.9819 23.1249 59.3152C23.6154 59.7603 24.1148 60.1972 24.6233 60.6248C25.0378 60.975 25.4587 61.3189 25.885 61.6572C26.321 62.0042 26.7631 62.3444 27.2109 62.6784V42.9216H5.39392C5.03728 42.1489 4.69719 41.368 4.37434 40.5797C4.21775 40.1983 4.06529 39.8144 3.91698 39.4293C3.76452 39.0342 3.6162 38.6366 3.47272 38.2377C3.19264 37.4637 2.92981 36.6829 2.68285 35.8958C2.43933 35.1212 2.21238 34.3403 2.00198 33.5538C1.79364 32.7792 1.60186 31.9984 1.42665 31.2125C1.39284 31.064 1.36042 30.9154 1.32869 30.7669C1.19279 30.1383 1.06724 29.506 0.952725 28.8706C0.812689 28.0947 0.687824 27.3139 0.579522 26.5286C0.471907 25.7528 0.380157 24.9719 0.304272 24.1867C0.229082 23.4102 0.169066 22.6293 0.124915 21.8447C0.0814546 21.0676 0.0538635 20.2874 0.0421331 19.5028C0.0366174 19.2007 0.0345459 18.8986 0.0345459 18.5952C0.467078 18.5952 0.898229 18.5915 1.32869 18.5846C2.19513 18.5703 3.05812 18.5415 3.91698 18.4991C4.7841 18.4567 5.6471 18.3992 6.50526 18.3274C7.37239 18.2557 8.23538 18.1695 9.09354 18.0684C9.96137 17.9673 10.8244 17.8512 11.6818 17.7207C12.5503 17.589 13.4133 17.443 14.2701 17.2819C14.4812 17.2432 14.6916 17.2027 14.9013 17.1608C15.5574 17.0329 16.2099 16.8962 16.8584 16.7501C17.7276 16.5566 18.5906 16.3475 19.4467 16.1234C20.3166 15.8969 21.1796 15.6547 22.035 15.3975C22.6531 15.2128 23.2677 15.0199 23.8775 14.8189C24.1273 14.7371 24.3756 14.6541 24.6233 14.5692C25.4945 14.2734 26.3568 13.9619 27.2109 13.6348C28.0828 13.3021 28.9458 12.9532 29.7991 12.5887C29.8861 12.5519 29.973 12.5144 30.0599 12.477C30.8442 12.1393 31.6203 11.7879 32.3874 11.424Z" fill="#2F2F2F"/>
<path d="M69.9655 18.5952C69.9655 18.8985 69.9634 19.2006 69.9579 19.5027C69.9461 20.2873 69.9185 21.0676 69.875 21.8447C69.8308 22.6293 69.7706 23.4101 69.6953 24.1866C69.6194 24.9718 69.5275 25.7527 69.4197 26.5286C69.3112 27.3138 69.1862 28.0947 69.0459 28.8705C68.9313 29.5059 68.8055 30.1382 68.6694 30.7668C68.6376 30.9153 68.6052 31.0639 68.5713 31.2118C68.3958 31.9977 68.2038 32.7785 67.9951 33.5538H62.336C62.5173 32.7766 62.6793 31.9938 62.8218 31.2042C62.9616 30.427 63.0828 29.6436 63.1831 28.8552C63.2835 28.0774 63.3644 27.294 63.4253 26.5056C63.4627 26.0346 63.4925 25.5618 63.5146 25.0872C63.5298 24.7772 63.5416 24.4672 63.5506 24.156C63.5631 23.7094 63.5693 23.2611 63.5693 22.8121H63.5146C62.644 22.8114 61.7788 22.7933 60.9179 22.757C60.0472 22.7213 59.1814 22.668 58.3211 22.5966C57.4497 22.5259 56.5839 22.4363 55.7243 22.3292C54.8523 22.2215 53.9865 22.0957 53.1276 21.9522C52.8473 21.9059 52.5677 21.8571 52.2888 21.8063C51.6998 21.6999 51.1136 21.5853 50.5308 21.4619C49.6574 21.2784 48.7916 21.0762 47.9341 20.8563C47.0599 20.6322 46.1941 20.3898 45.3373 20.1293C44.6383 19.917 43.9448 19.6928 43.2582 19.4567C43.0852 19.3972 42.9129 19.3371 42.7405 19.2757V62.6783C43.1882 62.3444 43.6304 62.0042 44.0664 61.6571C44.4934 61.3188 44.9142 60.9743 45.3288 60.6241C45.8372 60.1965 46.336 59.7602 46.8265 59.3152C47.1948 58.9819 47.5591 58.6429 47.9171 58.2996C48.3717 57.8646 48.818 57.4226 49.2554 56.9732C49.6803 56.5376 50.097 56.095 50.5054 55.6462C50.811 55.3117 51.1111 54.9733 51.4056 54.6313C51.9872 53.9597 52.5501 53.2756 53.0937 52.5777C53.1689 52.4822 53.2434 52.3861 53.3172 52.2893C53.9063 51.5241 54.4727 50.7426 55.0149 49.9474C55.2419 49.616 55.464 49.2826 55.682 48.9462C55.9696 48.5037 56.2497 48.0567 56.5229 47.6055C56.9885 46.8365 57.4328 46.0556 57.855 45.2635C57.9964 44.9995 58.1344 44.7348 58.2703 44.4683C58.5317 43.9571 58.7835 43.4415 59.0263 42.9216H47.9171V38.2377H60.893V38.4199C60.9152 38.3594 60.9359 38.2982 60.9566 38.2377H66.5222C66.3785 38.6365 66.23 39.0341 66.0773 39.4292C65.9288 39.8144 65.7761 40.1982 65.6192 40.5796C65.2959 41.368 64.9553 42.1488 64.5982 42.9216C64.2437 43.6906 63.8721 44.4508 63.4852 45.2036C63.4748 45.2236 63.4651 45.2435 63.4541 45.2635C63.0472 46.0531 62.623 46.834 62.1808 47.6055C61.7663 48.3295 61.3373 49.0448 60.893 49.752C60.8523 49.817 60.8108 49.8825 60.7694 49.9474C60.2685 50.7389 59.749 51.5197 59.2108 52.2893C58.9137 52.7163 58.6104 53.1395 58.3009 53.5589C58.0363 53.9191 57.7676 54.2768 57.494 54.6313C56.9164 55.3828 56.3216 56.1225 55.7088 56.849C55.6743 56.8908 55.639 56.932 55.6045 56.9732C54.9309 57.7691 54.2366 58.5499 53.5222 59.3152C53.3882 59.4594 53.2528 59.6036 53.1167 59.7465C52.5011 60.395 51.8711 61.0317 51.2272 61.6571C50.995 61.8825 50.7608 62.1065 50.5246 62.3294C49.9235 62.8961 49.3107 63.4535 48.6869 63.9991C48.4375 64.2182 48.186 64.4354 47.9324 64.6501C47.2554 65.2262 46.5652 65.7899 45.8633 66.341C45.6899 66.4777 45.5151 66.6132 45.3403 66.7474C44.4933 67.3996 43.6291 68.0338 42.7482 68.648C42.7316 68.6605 42.715 68.6724 42.6985 68.683C41.866 69.2641 41.0183 69.8283 40.1561 70.3751C39.81 70.5948 39.4618 70.8114 39.1115 71.0249C38.6003 71.3376 38.0849 71.6435 37.564 71.9431V11.4239C38.3322 11.7878 39.1094 12.1392 39.8949 12.4769C39.982 12.5143 40.069 12.5518 40.1561 12.5886C41.0107 12.9531 41.875 13.3021 42.7482 13.6348C43.6035 13.9618 44.4678 14.2739 45.3403 14.5698C45.5883 14.6541 45.8371 14.7371 46.0865 14.8188C46.6979 15.0198 47.3127 15.2127 47.9324 15.3975C48.7891 15.6546 49.6534 15.8968 50.5246 16.1234C51.3819 16.3475 52.2462 16.5566 53.1167 16.7507C53.7661 16.8961 54.419 17.0328 55.076 17.1608C55.2867 17.2026 55.4974 17.2432 55.7088 17.2819C56.5669 17.4429 57.4311 17.589 58.3009 17.7213C59.1597 17.8511 60.0239 17.9672 60.893 18.0683C61.7525 18.1695 62.6167 18.2556 63.4852 18.3274C64.3446 18.3992 65.2089 18.4566 66.0773 18.499C66.9374 18.5421 67.8017 18.5702 68.6694 18.5846C69.1005 18.5914 69.5323 18.5952 69.9655 18.5952Z" fill="#2F2F2F"/>
<path d="M56.9879 2.03125V17.4519C56.7097 17.4057 56.4322 17.3563 56.1562 17.3064C55.789 17.2402 55.4225 17.1715 55.0573 17.0997C54.8372 17.0566 54.6177 17.0122 54.3982 16.9673C54.2677 16.9404 54.138 16.9135 54.0082 16.8861C53.2704 16.7312 52.5367 16.5651 51.8085 16.3883V6.72888H18.1428V16.4208C17.4147 16.5975 16.681 16.7637 15.9431 16.9185C15.8134 16.946 15.6836 16.9729 15.5532 16.9997C15.3337 17.0447 15.1142 17.089 14.894 17.1321C14.5289 17.204 14.1624 17.2726 13.7952 17.3388C13.5191 17.3888 13.2417 17.4381 12.9635 17.4844V2.03125H56.9879Z" fill="#2F2F2F"/>
</g>
<path d="M98.064 24.888C98.064 26.2533 97.7333 27.416 97.072 28.376C96.4107 29.3147 95.4613 30.04 94.224 30.552C93.008 31.064 91.568 31.32 89.904 31.32C89.0507 31.32 88.2293 31.2773 87.44 31.192C86.672 31.1067 85.968 30.9893 85.328 30.84C84.688 30.6693 84.1227 30.4667 83.632 30.232V27.48C84.4 27.8213 85.3493 28.1307 86.48 28.408C87.632 28.6853 88.816 28.824 90.032 28.824C91.1627 28.824 92.112 28.6747 92.88 28.376C93.648 28.0773 94.224 27.6507 94.608 27.096C94.992 26.5413 95.184 25.8907 95.184 25.144C95.184 24.3973 95.024 23.768 94.704 23.256C94.384 22.744 93.8293 22.2747 93.04 21.848C92.272 21.4 91.1947 20.9307 89.808 20.44C88.8267 20.0773 87.9627 19.6933 87.216 19.288C86.4907 18.8613 85.8827 18.3813 85.392 17.848C84.9013 17.3147 84.528 16.7067 84.272 16.024C84.0373 15.3413 83.92 14.552 83.92 13.656C83.92 12.44 84.2293 11.4053 84.848 10.552C85.4667 9.67733 86.32 9.00533 87.408 8.536C88.5173 8.06667 89.7867 7.832 91.216 7.832C92.4747 7.832 93.6267 7.94933 94.672 8.184C95.7173 8.41867 96.6667 8.728 97.52 9.112L96.624 11.576C95.8347 11.2347 94.9707 10.9467 94.032 10.712C93.1147 10.4773 92.1547 10.36 91.152 10.36C90.192 10.36 89.392 10.4987 88.752 10.776C88.112 11.0533 87.632 11.448 87.312 11.96C86.992 12.4507 86.832 13.0267 86.832 13.688C86.832 14.456 86.992 15.096 87.312 15.608C87.632 16.12 88.1547 16.5787 88.88 16.984C89.6053 17.3893 90.5867 17.8267 91.824 18.296C93.168 18.7867 94.2987 19.32 95.216 19.896C96.1547 20.4507 96.8587 21.1227 97.328 21.912C97.8187 22.7013 98.064 23.6933 98.064 24.888ZM108.779 13.56C110.869 13.56 112.416 14.0187 113.419 14.936C114.421 15.8533 114.923 17.3147 114.923 19.32V31H112.875L112.331 28.568H112.203C111.712 29.1867 111.2 29.7093 110.667 30.136C110.155 30.5413 109.557 30.84 108.875 31.032C108.213 31.224 107.403 31.32 106.443 31.32C105.419 31.32 104.491 31.1387 103.659 30.776C102.848 30.4133 102.208 29.8587 101.739 29.112C101.269 28.344 101.035 27.384 101.035 26.232C101.035 24.5253 101.707 23.2133 103.051 22.296C104.395 21.3573 106.464 20.8453 109.259 20.76L112.171 20.664V19.64C112.171 18.2107 111.861 17.2187 111.243 16.664C110.624 16.1093 109.749 15.832 108.619 15.832C107.723 15.832 106.869 15.9707 106.059 16.248C105.248 16.504 104.491 16.8027 103.786 17.144L102.923 15.032C103.669 14.6267 104.555 14.2853 105.579 14.008C106.603 13.7093 107.669 13.56 108.779 13.56ZM109.611 22.712C107.477 22.7973 105.995 23.1387 105.163 23.736C104.352 24.3333 103.947 25.176 103.947 26.264C103.947 27.224 104.235 27.928 104.811 28.376C105.408 28.824 106.165 29.048 107.083 29.048C108.533 29.048 109.739 28.6533 110.699 27.864C111.659 27.0533 112.139 25.816 112.139 24.152V22.616L109.611 22.712ZM128.124 16.024H123.804V31H120.988V16.024H117.98V14.712L120.988 13.752V12.76C120.988 11.288 121.201 10.0933 121.628 9.176C122.076 8.25867 122.716 7.58667 123.548 7.16C124.38 6.73333 125.383 6.52 126.556 6.52C127.239 6.52 127.857 6.584 128.412 6.712C128.988 6.81867 129.479 6.94667 129.884 7.096L129.148 9.304C128.807 9.19733 128.412 9.09067 127.964 8.984C127.516 8.87733 127.057 8.824 126.588 8.824C125.649 8.824 124.945 9.144 124.476 9.784C124.028 10.4027 123.804 11.384 123.804 12.728V13.848H128.124V16.024ZM137.844 13.528C139.316 13.528 140.575 13.848 141.62 14.488C142.687 15.128 143.497 16.0347 144.052 17.208C144.628 18.36 144.916 19.7147 144.916 21.272V22.968H133.172C133.215 24.9093 133.705 26.392 134.644 27.416C135.604 28.4187 136.937 28.92 138.644 28.92C139.732 28.92 140.692 28.824 141.524 28.632C142.377 28.4187 143.252 28.12 144.148 27.736V30.2C143.273 30.584 142.409 30.8613 141.556 31.032C140.703 31.224 139.689 31.32 138.516 31.32C136.895 31.32 135.455 30.9893 134.196 30.328C132.959 29.6667 131.988 28.6853 131.284 27.384C130.601 26.0613 130.26 24.4507 130.26 22.552C130.26 20.6747 130.569 19.064 131.188 17.72C131.828 16.376 132.713 15.3413 133.844 14.616C134.996 13.8907 136.329 13.528 137.844 13.528ZM137.812 15.832C136.468 15.832 135.401 16.2693 134.612 17.144C133.844 17.9973 133.385 19.192 133.236 20.728H141.972C141.972 19.7467 141.823 18.8933 141.524 18.168C141.225 17.4427 140.767 16.8773 140.148 16.472C139.551 16.0453 138.772 15.832 137.812 15.832ZM95.024 50.936H102.928V62.136C101.691 62.5413 100.443 62.84 99.184 63.032C97.9253 63.224 96.496 63.32 94.896 63.32C92.528 63.32 90.5333 62.8507 88.912 61.912C87.2907 60.952 86.0533 59.5973 85.2 57.848C84.368 56.0773 83.952 53.9867 83.952 51.576C83.952 49.1867 84.4213 47.1173 85.36 45.368C86.2987 43.6187 87.6427 42.264 89.392 41.304C91.1627 40.3227 93.296 39.832 95.792 39.832C97.072 39.832 98.2773 39.9493 99.408 40.184C100.56 40.4187 101.627 40.7493 102.608 41.176L101.52 43.672C100.709 43.3093 99.792 43 98.768 42.744C97.7653 42.488 96.72 42.36 95.632 42.36C93.8187 42.36 92.2613 42.7333 90.96 43.48C89.6587 44.2267 88.6667 45.2933 87.984 46.68C87.3013 48.0453 86.96 49.6773 86.96 51.576C86.96 53.3893 87.248 55 87.824 56.408C88.4213 57.7947 89.3493 58.8827 90.608 59.672C91.8667 60.44 93.52 60.824 95.568 60.824C96.2507 60.824 96.848 60.8027 97.36 60.76C97.8933 60.696 98.3733 60.6213 98.8 60.536C99.248 60.4507 99.664 60.3653 100.048 60.28V53.496H95.024V50.936ZM122.337 45.848V63H120.033L119.617 60.728H119.489C119.127 61.3253 118.657 61.816 118.081 62.2C117.505 62.584 116.876 62.8613 116.193 63.032C115.511 63.224 114.796 63.32 114.049 63.32C112.684 63.32 111.532 63.1067 110.593 62.68C109.676 62.232 108.983 61.5493 108.513 60.632C108.044 59.7147 107.809 58.5307 107.809 57.08V45.848H110.657V56.888C110.657 58.2533 110.967 59.2773 111.585 59.96C112.204 60.6427 113.164 60.984 114.465 60.984C115.745 60.984 116.748 60.7493 117.473 60.28C118.22 59.7893 118.743 59.0853 119.041 58.168C119.361 57.2293 119.521 56.0987 119.521 54.776V45.848H122.337ZM134.279 45.56C136.369 45.56 137.916 46.0187 138.919 46.936C139.921 47.8533 140.423 49.3147 140.423 51.32V63H138.375L137.831 60.568H137.703C137.212 61.1867 136.7 61.7093 136.167 62.136C135.655 62.5413 135.057 62.84 134.375 63.032C133.713 63.224 132.903 63.32 131.943 63.32C130.919 63.32 129.991 63.1387 129.159 62.776C128.348 62.4133 127.708 61.8587 127.239 61.112C126.769 60.344 126.535 59.384 126.535 58.232C126.535 56.5253 127.207 55.2133 128.551 54.296C129.895 53.3573 131.964 52.8453 134.759 52.76L137.671 52.664V51.64C137.671 50.2107 137.361 49.2187 136.743 48.664C136.124 48.1093 135.249 47.832 134.119 47.832C133.223 47.832 132.369 47.9707 131.559 48.248C130.748 48.504 129.991 48.8027 129.286 49.144L128.423 47.032C129.169 46.6267 130.055 46.2853 131.079 46.008C132.103 45.7093 133.169 45.56 134.279 45.56ZM135.111 54.712C132.977 54.7973 131.495 55.1387 130.663 55.736C129.852 56.3333 129.447 57.176 129.447 58.264C129.447 59.224 129.735 59.928 130.311 60.376C130.908 60.824 131.665 61.048 132.583 61.048C134.033 61.048 135.239 60.6533 136.199 59.864C137.159 59.0533 137.639 57.816 137.639 56.152V54.616L135.111 54.712ZM153.72 45.528C154.04 45.528 154.381 45.5493 154.744 45.592C155.128 45.6133 155.459 45.656 155.736 45.72L155.384 48.312C155.107 48.248 154.797 48.1947 154.456 48.152C154.136 48.1093 153.827 48.088 153.528 48.088C152.867 48.088 152.237 48.2267 151.64 48.504C151.043 48.7813 150.509 49.176 150.04 49.688C149.571 50.1787 149.197 50.776 148.92 51.48C148.664 52.184 148.536 52.9733 148.536 53.848V63H145.72V45.848H148.024L148.344 48.984H148.472C148.835 48.344 149.272 47.768 149.784 47.256C150.296 46.7227 150.883 46.3067 151.544 46.008C152.205 45.688 152.931 45.528 153.72 45.528ZM164.394 63.32C162.26 63.32 160.554 62.584 159.274 61.112C157.994 59.6187 157.354 57.4 157.354 54.456C157.354 51.512 157.994 49.2933 159.274 47.8C160.575 46.2853 162.292 45.528 164.426 45.528C165.322 45.528 166.1 45.6453 166.762 45.88C167.423 46.0933 167.999 46.392 168.49 46.776C168.98 47.16 169.396 47.5867 169.738 48.056H169.93C169.908 47.7787 169.866 47.3733 169.802 46.84C169.759 46.2853 169.738 45.848 169.738 45.528V38.68H172.554V63H170.282L169.866 60.696H169.738C169.396 61.1867 168.98 61.6347 168.49 62.04C167.999 62.424 167.412 62.7333 166.73 62.968C166.068 63.2027 165.29 63.32 164.394 63.32ZM164.842 60.984C166.655 60.984 167.924 60.4933 168.65 59.512C169.396 58.5093 169.77 57.0053 169.77 55V54.488C169.77 52.3547 169.418 50.7227 168.714 49.592C168.01 48.44 166.708 47.864 164.81 47.864C163.295 47.864 162.154 48.472 161.386 49.688C160.639 50.8827 160.266 52.4933 160.266 54.52C160.266 56.568 160.639 58.1573 161.386 59.288C162.154 60.4187 163.306 60.984 164.842 60.984Z" fill="#2F2F2F"/>
<defs>
<clipPath id="clip0_299_1035">
<rect width="70" height="70" fill="white" transform="translate(0 2)"/>
</clipPath>
</defs>
</svg>
